<svg xmlns="http://www.w3.org/2000/svg" xmlns:xlink="http://www.w3.org/1999/xlink" viewBox="0 0 445.94 39.7"><defs><style>.cls-1{fill:none;}.cls-2{clip-path:url(#clip-path);}.cls-3{fill:#fff;}.cls-4{clip-path:url(#clip-path-2);}.cls-5{clip-path:url(#clip-path-3);}.cls-6{clip-path:url(#clip-path-4);}.cls-7{clip-path:url(#clip-path-5);}.cls-8{clip-path:url(#clip-path-6);}.cls-9{clip-path:url(#clip-path-7);}.cls-10{clip-path:url(#clip-path-8);}.cls-11{clip-path:url(#clip-path-9);}.cls-12{clip-path:url(#clip-path-10);}.cls-13{clip-path:url(#clip-path-11);}.cls-14{clip-path:url(#clip-path-12);}.cls-15{clip-path:url(#clip-path-13);}.cls-16{clip-path:url(#clip-path-14);}</style><clipPath id="clip-path" transform="translate(-1.91 -1.74)"><polygon class="cls-1" points="16.47 39.4 4.28 5.83 8.3 5.77 16.66 29.57 26.55 4.11 36.14 29.47 45.45 5.8 49.37 5.8 35.88 39.38 26.6 13.83 16.47 39.4"/></clipPath><clipPath id="clip-path-2" transform="translate(-1.91 -1.74)"><polyline class="cls-1" points="57.62 37.66 57.62 5.75 54.04 5.79 54 37.66"/></clipPath><clipPath id="clip-path-3" transform="translate(-1.91 -1.74)"><polygon class="cls-1" points="90.8 30.28 90.8 5.75 94.31 5.75 94.25 39.02 69.31 13.2 69.31 37.66 65.83 37.66 65.87 4.49 90.8 30.28"/></clipPath><clipPath id="clip-path-4" transform="translate(-1.91 -1.74)"><path class="cls-1" d="M132.3,21.6H119l0,3.38,9.49,0a10.19,10.19,0,0,1-1.91,5.45A10.54,10.54,0,0,1,121,34.29a13.34,13.34,0,0,1-14.31-5,13.36,13.36,0,0,1-.94-13.41,13.5,13.5,0,0,1,3.79-4.51,13.77,13.77,0,0,1,7.91-2.76,11.16,11.16,0,0,1,5.83,1.23,15.15,15.15,0,0,1,3.24,2.56,20.69,20.69,0,0,1,1.87,2.12l2.72-2.34a17.1,17.1,0,0,0-23.74-3.78c-6.07,4.49-6.56,11.71-6.6,12.42a16.86,16.86,0,0,0,3.92,11.58,16.64,16.64,0,0,0,11,5.7c1.57.13,7.81.4,12.51-4.47a15.5,15.5,0,0,0,4.13-11.85"/></clipPath><clipPath id="clip-path-5" transform="translate(-1.91 -1.74)"><polygon class="cls-1" points="162.51 34.26 162.51 37.66 150 37.66 150 5.75 153.53 5.75 153.53 34.26 162.51 34.26"/></clipPath><clipPath id="clip-path-6" transform="translate(-1.91 -1.74)"><path d="M190.06,5.74l.06,21.67a11.16,11.16,0,0,1-3.4,8.12,13.5,13.5,0,0,1-15.61.38c-3.91-3.18-3.89-8.21-3.88-8.93l.09-21.24h3.57l0,21.24a7.44,7.44,0,0,0,7.92,7.66,7.73,7.73,0,0,0,5.74-2.13,7.38,7.38,0,0,0,2-4.94l0-21.83"/></clipPath><clipPath id="clip-path-7" transform="translate(-1.91 -1.74)"><polyline class="cls-1" points="220.51 37.66 215.87 37.66 202.58 23.05 201.75 23.87 201.75 37.66 198.3 37.66 198.3 5.75 201.75 5.75 201.75 19.36 215.45 5.75 220.09 5.75 205.21 20.45 220.77 37.66"/></clipPath><clipPath id="clip-path-8" transform="translate(-1.91 -1.74)"><polyline class="cls-1" points="242.43 37.66 242.43 34.38 229.21 34.38 229.21 21.7 241.91 21.7 241.91 18.47 229.21 18.47 229.19 18.34 229.23 9.15 229.21 9.02 242.21 9.02 242.21 5.75 225.62 5.75 225.57 37.66 225.62 37.62 242.21 37.62"/></clipPath><clipPath id="clip-path-9" transform="translate(-1.91 -1.74)"><polyline class="cls-1" points="294.04 37.91 289.04 3.85 276.51 30.72 264.21 3.77 258.9 37.74 262.6 37.7 265.83 15.7 276.43 39.02 287.32 15.57 290.3 37.66 294.04 37.66"/></clipPath><clipPath id="clip-path-10" transform="translate(-1.91 -1.74)"><path d="M324.3,5.74l.05,21.67A11.14,11.14,0,0,1,321,35.53a13.51,13.51,0,0,1-15.62.38c-3.91-3.18-3.89-8.21-3.87-8.93q0-10.62.08-21.24h3.58l0,21.24a7.82,7.82,0,0,0,2.42,5.74A7.85,7.85,0,0,0,313,34.64a7.71,7.71,0,0,0,5.74-2.13,7.38,7.38,0,0,0,2-4.94l0-21.83"/></clipPath><clipPath id="clip-path-11" transform="translate(-1.91 -1.74)"><path class="cls-1" d="M330.6,29.82l3.27-.82a7.2,7.2,0,0,0,2.81,4.66,6.86,6.86,0,0,0,8.77-.77,6.21,6.21,0,0,0,1.12-6.4,6.65,6.65,0,0,0-2.46-2.72c-1-.71-1.52-.76-3.64-1.6a22.3,22.3,0,0,1-4.6-2.17,7.79,7.79,0,0,1-3.27-3.7,6.72,6.72,0,0,1-.38-2.34,11.67,11.67,0,0,1,.59-3.79,7.45,7.45,0,0,1,1.57-2.51,7.77,7.77,0,0,1,3.32-2A9.87,9.87,0,0,1,343,5.41a9.46,9.46,0,0,1,3.39,1.31,8.93,8.93,0,0,1,3.1,3.54l-2.76,1.91a6.47,6.47,0,0,0-3.24-3,5.93,5.93,0,0,0-6,.83,4.63,4.63,0,0,0-1.68,3.25,4.41,4.41,0,0,0,.89,2.77A6.26,6.26,0,0,0,339,17.53c1.46.76,2.6,1.26,2.93,1.41a32.88,32.88,0,0,1,4.69,2.25A8.86,8.86,0,0,1,350,24.6a8.25,8.25,0,0,1,.76,3.95,9.43,9.43,0,0,1-.89,4.13,9.71,9.71,0,0,1-4,4.21,10.71,10.71,0,0,1-7.53,1.28,9.45,9.45,0,0,1-7.7-8.35Z"/></clipPath><clipPath id="clip-path-12" transform="translate(-1.91 -1.74)"><polyline class="cls-1" points="373.89 37.94 373.89 34.66 360.68 34.66 360.68 21.98 373.38 21.98 373.38 18.75 360.68 18.75 360.66 18.62 360.7 9.43 360.68 9.3 373.68 9.3 373.68 6.02 357.08 6.02 357.04 37.94 357.08 37.89 373.68 37.89"/></clipPath><clipPath id="clip-path-13" transform="translate(-1.91 -1.74)"><path d="M402.74,5.74l.06,21.67a11.16,11.16,0,0,1-3.4,8.12,13.5,13.5,0,0,1-15.61.38c-3.91-3.18-3.89-8.21-3.88-8.93L380,5.74h3.57l0,21.24a7.44,7.44,0,0,0,7.92,7.66,7.73,7.73,0,0,0,5.74-2.13,7.38,7.38,0,0,0,2-4.94l0-21.83"/></clipPath><clipPath id="clip-path-14" transform="translate(-1.91 -1.74)"><polyline class="cls-1" points="445.43 38.12 440.42 4.05 427.89 30.93 415.6 3.97 410.28 37.95 413.98 37.91 417.21 15.91 427.81 39.23 438.7 15.78 441.68 37.87 445.43 37.87"/></clipPath></defs><g id="Wing"><g id="W"><g class="cls-2"><rect class="cls-3" width="49.02" height="39.7"/></g></g><g id="I"><g class="cls-4"><rect class="cls-3" x="51.7" y="3.61" width="4.44" height="34.44"/></g></g><g id="N"><g class="cls-5"><rect class="cls-3" x="62.81" y="1.62" width="30.77" height="36.04"/></g></g><g id="G"><g class="cls-6"><rect class="cls-3" x="97.11" y="2.38" width="35.02" height="35.91"/></g></g></g><g id="Luke"><g id="L"><g class="cls-7"><rect class="cls-3" x="147.57" y="3.66" width="13.79" height="33.28"/></g></g><g id="U"><path d="M190.06,5.74l.06,21.67a11.16,11.16,0,0,1-3.4,8.12,13.5,13.5,0,0,1-15.61.38c-3.91-3.18-3.89-8.21-3.88-8.93l.09-21.24h3.57l0,21.24a7.44,7.44,0,0,0,7.92,7.66,7.73,7.73,0,0,0,5.74-2.13,7.38,7.38,0,0,0,2-4.94l0-21.83" transform="translate(-1.91 -1.74)"/><g class="cls-8"><rect class="cls-3" x="164.17" y="3.53" width="25.53" height="33.36"/></g></g><g id="K"><g class="cls-9"><rect class="cls-3" x="194.89" y="2.94" width="25.36" height="33.79"/></g></g><g id="E"><g class="cls-10"><rect class="cls-3" x="222.85" y="3.23" width="19.02" height="33.23"/></g></g></g><g id="Museum"><g id="M"><g class="cls-11"><rect class="cls-3" x="256.3" y="0.68" width="38.26" height="36.98"/></g></g><g id="U-2" data-name="U"><path d="M324.3,5.74l.05,21.67A11.14,11.14,0,0,1,321,35.53a13.51,13.51,0,0,1-15.62.38c-3.91-3.18-3.89-8.21-3.87-8.93q0-10.62.08-21.24h3.58l0,21.24a7.82,7.82,0,0,0,2.42,5.74A7.85,7.85,0,0,0,313,34.64a7.71,7.71,0,0,0,5.74-2.13,7.38,7.38,0,0,0,2-4.94l0-21.83" transform="translate(-1.91 -1.74)"/><g class="cls-12"><rect class="cls-3" x="298.4" y="3.53" width="25.53" height="33.36"/></g></g><g id="S"><g class="cls-13"><rect class="cls-3" x="327.49" y="2.17" width="22.09" height="34.81"/></g></g><g id="E-2" data-name="E"><g class="cls-14"><rect class="cls-3" x="354.32" y="3.51" width="19.02" height="33.23"/></g></g><g id="U-3" data-name="U"><path d="M402.74,5.74l.06,21.67a11.16,11.16,0,0,1-3.4,8.12,13.5,13.5,0,0,1-15.61.38c-3.91-3.18-3.89-8.21-3.88-8.93L380,5.74h3.57l0,21.24a7.44,7.44,0,0,0,7.92,7.66,7.73,7.73,0,0,0,5.74-2.13,7.38,7.38,0,0,0,2-4.94l0-21.83" transform="translate(-1.91 -1.74)"/><g class="cls-15"><rect class="cls-3" x="376.85" y="3.53" width="25.53" height="33.36"/></g></g><g id="M-2" data-name="M"><g class="cls-16"><rect class="cls-3" x="407.68" y="0.89" width="38.26" height="36.98"/></g></g></g></svg>