<svg id="white" xmlns="http://www.w3.org/2000/svg" xmlns:xlink="http://www.w3.org/1999/xlink" viewBox="0 0 111.51 41.43"><defs><style>.cls-1{fill:none;}.cls-2{clip-path:url(#clip-path);}.cls-3{fill:#fff;}.cls-4{clip-path:url(#clip-path-2);}.cls-5{clip-path:url(#clip-path-3);}</style><clipPath id="clip-path" transform="translate(-2.34 -39.62)"><polygon class="cls-1" points="47.79 46.13 51.68 46.13 38.21 79.7 29.02 54.68 18.75 79.77 6.87 46.13 10.64 46.13 18.94 69.75 29.09 44.15 38.6 69.62 47.79 46.13"/></clipPath><clipPath id="clip-path-2" transform="translate(-2.34 -39.62)"><rect class="cls-1" x="56.36" y="43.68" width="16.94" height="36.77"/></clipPath><clipPath id="clip-path-3" transform="translate(-2.34 -39.62)"><rect class="cls-1" x="77.87" y="43.3" width="37.51" height="36.09"/></clipPath></defs><g id="W"><g class="cls-2"><rect class="cls-3" width="51.7" height="41.43"/></g></g><g id="L"><g class="cls-4"><polygon class="cls-3" points="56.66 38.53 56.66 6.45 60.3 6.45 60.3 35.04 69.17 35.04 69.17 38.53 56.66 38.53"/></g></g><g id="M"><g class="cls-5"><polyline class="cls-3" points="111.51 38.33 107.81 38.36 107.81 38.36 104.77 16.17 93.83 39.77 83.04 16.11 79.98 38.33 76.21 38.36 81.55 4.62 93.89 31.28 106.62 4.53 111.51 38.33"/></g></g></svg>